<svg xmlns="http://www.w3.org/2000/svg" width="575" height="350"
									 class="static-map__map">
									<g fill="none" fill-rule="evenodd">
										<path fill="#E9F0F5" stroke="#B8CED9" stroke-linejoin="round" stroke-width="2"
											  d="m10.9877408 293-3.99299474-16.5L4 249l3.4938704-27 3.4938704-20 3.4938704-22 13.9754816-12 8.9842382-14v-28l5.9894921-14 4.4921191-11 6.9877408-17 8.4851138-7 18.4676007-4 14.9737303-7L125.78634 51l7.985989-3-4.991243 11 4.991243 14 14.973731 17 14.97373 15 9.982487 6 5.989492 22 2.994746 14 6.987741 7 10.980735 7 10.980736 4h13.975481l3.992995-4 10.980736-4 5.989492-3 6.987741-2.5 3.992994-6.5 5.490368-8 7.98599-11v-7l3.49387-29-3.49387-17V59l-3.493871-18v-9.5l9.982487-3.5 3.992995-6 8.984238 2.5 15.971979-10h12.977233L327.931699 1h8.485114v7l6.98774-7 6.987741 10 6.987741 3.5 6.987741 4.5 7.486865 5.5 2.994746-2.5 3.49387 4 3.992995 7 10.980736 2 4.991243-1 3.992995 3 13.975482 21v12l12.977232 5.5 5.989493 1.5 7.985989 9.5 5.490368-6.5 6.987741-3 10.481611-7 5.490368-2.5 12.478108 5.5 4.991244 7 10.481611 2 12.977233 2 7.985989-2-2.495621 15 8.984238 8 7.985989 7 6.488617 7 1.497373 16.5-6.488617 6.5-3.992994 14 2.495621 10.5-4.492119 8.5-1.497373 5 3.493871 4 12.478108-6.5 2.994746 8 5.490368-1.5v12l-6.987741 6 10.980736 9 1.996497 9h6.987741l-2.994746 9 2.994746 10 2.495622 7L574 263l-7.486865 15-6.987741 3.5-3.992995 6h-1.996497l-6.987741 5.5-4.991243 5.5-3.493871 8.5h-2.994746l-5.989492 4.5-1.996497 2.5-2.495622 17.5-20.963222-2-5.490368 2-8.984238-6.5-13.476358 4.5-5.490367 5-3.992995 8.5-7.486865 3-1.497373 3-8.485114-6-3.992995 6-6.987741-3-8.485114-4.5-5.490367-2-5.989492-5-1.497373-5-3.992995-7-4.991244-4-4.991243-7-3.992995-2-6.987741-2.5-4.991243-4.5-1.996497-4-5.989493-5.5-3.49387-2.5-2.994746-6.5h-3.49387l-7.486866-4-3.992994 4-7.486865-2.5h-7.98599l-4.991243-5-8.485114 1.5-4.492119-4.5v-8l-6.488617-5.5v-8.5l-5.989492-7.5v-5l-4.492119 5h-5.989492v2l-5.490368 3-4.492119 2.5L289 258.5l-4.492119 4.5-9.982487 4-8.984238-4-7.98599 2.5-10.481611 1.5-6.488616-4 2.994746-6-17.968477-1.5-2.994746 3v-7h-10.980735l-6.987741 4-7.98599-4-13.975481-2.5-6.987741 2.5v4l-6.488616 4.5-5.490368-3-.998249-13-11.978984 5-3.49387 2.5h-18.467601l-1.497373-2.5-14.474606-5-3.992995 2h-6.987741l-4.9912432-2H85.357268l-3.4938705 3.5-6.9877408 5.5-4.492119-1.5-6.9877409 4-8.4851138 1.5-8.9842382 3-5.4903677 5.5-1.4973731 3.5-8.4851138 3-1.9964974 4.5-5.4903678 3.5v7.5l-2.994746 5.5z"/>
										<g stroke="#B8CED9" stroke-linecap="round" stroke-linejoin="round"
										   opacity=".60000002">
											<path d="m47 102 36 64 47-116 3 73-8 87-70-7"/>
											<path d="m8 232 117-22 52-43-30-79"/>
											<path d="m125 210 70 27 27-26 36 35 2-26-73-6 65-46-75-1z"/>
											<path d="m125 209 62 5 35-3 38 9-8-53-30 44.5"/>
											<path d="m187 215-10-48 113 21 16 14-47 18"/>
											<path d="m258 246 49-44 10-42-27 28-36-20"/>
											<path d="m258 245 32-57-30 32m-8-52 21-45 38 17-21 48 10-100m-27 35 17 65"/>
											<path d="m273 123 27-36-29-36 77-20 8 50 37 22 8-53-58 67 75 66-39 33.5-38 3.5-33-18"/>
											<path d="m311 140 31-23-43-29 49-56 52 18-44 31-14 36-26 44-43-37-2-74"/>
											<path d="m306 201 112-18-102-23 144-23-67-35 91-2 16 42-82 41-78 37 51 14 24 20 60-28-84 7-12-16.5"/>
											<path d="m415 255 3-72-25-83-77 60 166-60-22 37 40 5-26 85"/>
											<path d="m418 183 42-48 14 91 32 6 31.5-6C457.833333 197.333333 418 183 418 183Zm-3 71 43 10-14 59 48-3z"/>
											<path d="m444 323-29-69 91-22-6-90-109 92"/>
											<path d="m458 264 16-38-56-43M83 167l50-42-86-23L8 232m252-13-65 19-8-24m297-114-82-50H271"/>
											<path d="m500 142 36 83-44 95-34-56 48-33m-62 93 92-97M343 118l-3 103 53-119m-76 58 24 61m15-140-57 7M47 102l8 101-47 29 75-65 42 43 22-54 30 11-44-43 14-36-17-38z"/>
											<path d="m83 166-28 37 92-47z"/>
											<path d="m83 166 94 2 45 43m193 43-74-35-82 28-64-9"/>
										</g>
										<path fill="#0E659B" class="animate__animated animate__bounceInDown"
											  d="M474 227c2.2857143 0 8-5.9266742 8-12.22222222C482 210.48222972 478.418278 207 474 207s-8 3.48222972-8 7.77777778C466 221.0733258 471.71428571 227 474 227Z"/>
										<g transform="translate(468 209)">
											<circle cx="6" cy="6" r="6" fill="#FFF"/>
											<path fill="#0E659B" fill-rule="nonzero"
												  d="M8 3v1.23447222H5.6V5.25H8v1.28047355H5.6v.49737167c0 .31527601.25164968.57544958.57691173.61361075l.08274607.00481844L8 7.64572355V9H5.75908747c-.9292773 0-1.69025537-.67553879-1.75467071-1.53136934L4 7.35085549V3h4Z"/>
										</g>
										<path fill="#0E659B" class="animate__animated animate__bounceInDown"
											  d="M402 50c2.2857143 0 8-5.9266742 8-12.22222222C410 33.48222972 406.418278 30 402 30s-8 3.48222972-8 7.77777778C394 44.0733258 399.71428571 50 402 50Z"/>
										<g transform="translate(396 32)">
											<circle cx="6" cy="6" r="6" fill="#FFF"/>
											<path fill="#0E659B" fill-rule="nonzero"
												  d="M8 3v1.23447222H5.6V5.25H8v1.28047355H5.6v.49737167c0 .31527601.25164968.57544958.57691173.61361075l.08274607.00481844L8 7.64572355V9H5.75908747c-.9292773 0-1.69025537-.67553879-1.75467071-1.53136934L4 7.35085549V3h4Z"/>
										</g>
										<path fill="#0E659B" class="animate__animated animate__bounceInDown"
											  d="M177 168c2.2857143 0 8-5.9266742 8-12.22222222C185 151.48222972 181.418278 148 177 148s-8 3.48222972-8 7.77777778C169 162.0733258 174.71428571 168 177 168Z"/>
										<g transform="translate(171 150)">
											<circle cx="6" cy="6" r="6" fill="#FFF"/>
											<path fill="#0E659B" fill-rule="nonzero"
												  d="M8 3v1.23447222H5.6V5.25H8v1.28047355H5.6v.49737167c0 .31527601.25164968.57544958.57691173.61361075l.08274607.00481844L8 7.64572355V9H5.75908747c-.9292773 0-1.69025537-.67553879-1.75467071-1.53136934L4 7.35085549V3h4Z"/>
										</g>
										<path fill="#0E659B" class="animate__animated animate__bounceInDown"
											  d="M195 238c2.2857143 0 8-5.9266742 8-12.22222222C203 221.48222972 199.418278 218 195 218s-8 3.48222972-8 7.77777778C187 232.0733258 192.71428571 238 195 238Z"/>
										<g transform="translate(189 220)">
											<circle cx="6" cy="6" r="6" fill="#FFF"/>
											<path fill="#0E659B" fill-rule="nonzero"
												  d="M8 3v1.23447222H5.6V5.25H8v1.28047355H5.6v.49737167c0 .31527601.25164968.57544958.57691173.61361075l.08274607.00481844L8 7.64572355V9H5.75908747c-.9292773 0-1.69025537-.67553879-1.75467071-1.53136934L4 7.35085549V3h4Z"/>
										</g>
										<path fill="#0E659B" class="animate__animated animate__bounceInDown"
											  d="M393 102c2.2857143 0 8-5.9266742 8-12.22222222C401 85.48222972 397.418278 82 393 82s-8 3.48222972-8 7.77777778C385 96.0733258 390.71428571 102 393 102Z"/>
										<g transform="translate(387 84)">
											<circle cx="6" cy="6" r="6" fill="#FFF"/>
											<path fill="#0E659B" fill-rule="nonzero"
												  d="M8 3v1.23447222H5.6V5.25H8v1.28047355H5.6v.49737167c0 .31527601.25164968.57544958.57691173.61361075l.08274607.00481844L8 7.64572355V9H5.75908747c-.9292773 0-1.69025537-.67553879-1.75467071-1.53136934L4 7.35085549V3h4Z"/>
										</g>
										<path fill="#0E659B" class="animate__animated animate__bounceInDown"
											  d="M311 141c2.2857143 0 8-5.9266742 8-12.22222222C319 124.48222972 315.418278 121 311 121s-8 3.48222972-8 7.77777778C303 135.0733258 308.71428571 141 311 141Z"/>
										<g transform="translate(305 123)">
											<circle cx="6" cy="6" r="6" fill="#FFF"/>
											<path fill="#0E659B" fill-rule="nonzero"
												  d="M8 3v1.23447222H5.6V5.25H8v1.28047355H5.6v.49737167c0 .31527601.25164968.57544958.57691173.61361075l.08274607.00481844L8 7.64572355V9H5.75908747c-.9292773 0-1.69025537-.67553879-1.75467071-1.53136934L4 7.35085549V3h4Z"/>
										</g>
										<path fill="#0E659B" class="animate__animated animate__bounceInDown"
											  d="M273 124c2.2857143 0 8-5.9266742 8-12.22222222C281 107.48222972 277.418278 104 273 104s-8 3.48222972-8 7.77777778C265 118.0733258 270.71428571 124 273 124Z"/>
										<g transform="translate(267 106)">
											<circle cx="6" cy="6" r="6" fill="#FFF"/>
											<path fill="#0E659B" fill-rule="nonzero"
												  d="M8 3v1.23447222H5.6V5.25H8v1.28047355H5.6v.49737167c0 .31527601.25164968.57544958.57691173.61361075l.08274607.00481844L8 7.64572355V9H5.75908747c-.9292773 0-1.69025537-.67553879-1.75467071-1.53136934L4 7.35085549V3h4Z"/>
										</g>
										<path fill="#0E659B" class="animate__animated animate__bounceInDown"
											  d="M125 210c2.2857143 0 8-5.9266742 8-12.22222222C133 193.48222972 129.418278 190 125 190s-8 3.48222972-8 7.77777778C117 204.0733258 122.71428571 210 125 210Z"/>
										<g transform="translate(119 192)">
											<circle cx="6" cy="6" r="6" fill="#FFF"/>
											<path fill="#0E659B" fill-rule="nonzero"
												  d="M8 3v1.23447222H5.6V5.25H8v1.28047355H5.6v.49737167c0 .31527601.25164968.57544958.57691173.61361075l.08274607.00481844L8 7.64572355V9H5.75908747c-.9292773 0-1.69025537-.67553879-1.75467071-1.53136934L4 7.35085549V3h4Z"/>
										</g>
										<path fill="#0E659B" class="animate__animated animate__bounceInDown"
											  d="M271 51c2.2857143 0 8-5.9266742 8-12.22222222C279 34.48222972 275.418278 31 271 31s-8 3.48222972-8 7.77777778C263 45.0733258 268.71428571 51 271 51Z"/>
										<g transform="translate(265 33)">
											<circle cx="6" cy="6" r="6" fill="#FFF"/>
											<path fill="#0E659B" fill-rule="nonzero"
												  d="M8 3v1.23447222H5.6V5.25H8v1.28047355H5.6v.49737167c0 .31527601.25164968.57544958.57691173.61361075l.08274607.00481844L8 7.64572355V9H5.75908747c-.9292773 0-1.69025537-.67553879-1.75467071-1.53136934L4 7.35085549V3h4Z"/>
										</g>
										<path fill="#0E659B" class="animate__animated animate__bounceInDown"
											  d="M348 32c2.2857143 0 8-5.9266742 8-12.22222222C356 15.48222972 352.418278 12 348 12s-8 3.48222972-8 7.77777778C340 26.0733258 345.71428571 32 348 32Z"/>
										<g transform="translate(342 14)">
											<circle cx="6" cy="6" r="6" fill="#FFF"/>
											<path fill="#0E659B" fill-rule="nonzero"
												  d="M8 3v1.23447222H5.6V5.25H8v1.28047355H5.6v.49737167c0 .31527601.25164968.57544958.57691173.61361075l.08274607.00481844L8 7.64572355V9H5.75908747c-.9292773 0-1.69025537-.67553879-1.75467071-1.53136934L4 7.35085549V3h4Z"/>
										</g>
										<path fill="#0E659B" class="animate__animated animate__bounceInDown"
											  d="M147 90c2.2857143 0 8-5.9266742 8-12.22222222C155 73.48222972 151.418278 70 147 70s-8 3.48222972-8 7.77777778C139 84.0733258 144.71428571 90 147 90Z"/>
										<g transform="translate(141 72)">
											<circle cx="6" cy="6" r="6" fill="#FFF"/>
											<path fill="#0E659B" fill-rule="nonzero"
												  d="M8 3v1.23447222H5.6V5.25H8v1.28047355H5.6v.49737167c0 .31527601.25164968.57544958.57691173.61361075l.08274607.00481844L8 7.64572355V9H5.75908747c-.9292773 0-1.69025537-.67553879-1.75467071-1.53136934L4 7.35085549V3h4Z"/>
										</g>
										<path fill="#0E659B" class="animate__animated animate__bounceInDown"
											  d="M458 264c2.2857143 0 8-5.9266742 8-12.22222222C466 247.48222972 462.418278 244 458 244s-8 3.48222972-8 7.77777778C450 258.0733258 455.71428571 264 458 264Z"/>
										<g transform="translate(452 246)">
											<circle cx="6" cy="6" r="6" fill="#FFF"/>
											<path fill="#0E659B" fill-rule="nonzero"
												  d="M8 3v1.23447222H5.6V5.25H8v1.28047355H5.6v.49737167c0 .31527601.25164968.57544958.57691173.61361075l.08274607.00481844L8 7.64572355V9H5.75908747c-.9292773 0-1.69025537-.67553879-1.75467071-1.53136934L4 7.35085549V3h4Z"/>
										</g>
										<path fill="#0E659B" class="animate__animated animate__bounceInDown"
											  d="M379 217c2.2857143 0 8-5.9266742 8-12.22222222C387 200.48222972 383.418278 197 379 197s-8 3.48222972-8 7.77777778C371 211.0733258 376.71428571 217 379 217Z"/>
										<g transform="translate(373 199)">
											<circle cx="6" cy="6" r="6" fill="#FFF"/>
											<path fill="#0E659B" fill-rule="nonzero"
												  d="M8 3v1.23447222H5.6V5.25H8v1.28047355H5.6v.49737167c0 .31527601.25164968.57544958.57691173.61361075l.08274607.00481844L8 7.64572355V9H5.75908747c-.9292773 0-1.69025537-.67553879-1.75467071-1.53136934L4 7.35085549V3h4Z"/>
										</g>
										<path fill="#0E659B" class="animate__animated animate__bounceInDown"
											  d="M290 189c2.2857143 0 8-5.9266742 8-12.22222222C298 172.48222972 294.418278 169 290 169s-8 3.48222972-8 7.77777778C282 183.0733258 287.71428571 189 290 189Z"/>
										<g transform="translate(284 171)">
											<circle cx="6" cy="6" r="6" fill="#FFF"/>
											<path fill="#0E659B" fill-rule="nonzero"
												  d="M8 3v1.23447222H5.6V5.25H8v1.28047355H5.6v.49737167c0 .31527601.25164968.57544958.57691173.61361075l.08274607.00481844L8 7.64572355V9H5.75908747c-.9292773 0-1.69025537-.67553879-1.75467071-1.53136934L4 7.35085549V3h4Z"/>
										</g>
										<path fill="#0E659B" class="animate__animated animate__bounceInDown"
											  d="M316 161c2.2857143 0 8-5.9266742 8-12.22222222C324 144.48222972 320.418278 141 316 141s-8 3.48222972-8 7.77777778C308 155.0733258 313.71428571 161 316 161Z"/>
										<g transform="translate(310 143)">
											<circle cx="6" cy="6" r="6" fill="#FFF"/>
											<path fill="#0E659B" fill-rule="nonzero"
												  d="M8 3v1.23447222H5.6V5.25H8v1.28047355H5.6v.49737167c0 .31527601.25164968.57544958.57691173.61361075l.08274607.00481844L8 7.64572355V9H5.75908747c-.9292773 0-1.69025537-.67553879-1.75467071-1.53136934L4 7.35085549V3h4Z"/>
										</g>
										<path fill="#0E659B" class="animate__animated animate__bounceInDown"
											  d="M418 184c2.2857143 0 8-5.9266742 8-12.22222222C426 167.48222972 422.418278 164 418 164s-8 3.48222972-8 7.77777778C410 178.0733258 415.71428571 184 418 184Z"/>
										<g transform="translate(412 166)">
											<circle cx="6" cy="6" r="6" fill="#FFF"/>
											<path fill="#0E659B" fill-rule="nonzero"
												  d="M8 3v1.23447222H5.6V5.25H8v1.28047355H5.6v.49737167c0 .31527601.25164968.57544958.57691173.61361075l.08274607.00481844L8 7.64572355V9H5.75908747c-.9292773 0-1.69025537-.67553879-1.75467071-1.53136934L4 7.35085549V3h4Z"/>
										</g>
										<path fill="#0E659B" class="animate__animated animate__bounceInDown"
											  d="M536 227c2.2857143 0 8-5.9266742 8-12.22222222C544 210.48222972 540.418278 207 536 207s-8 3.48222972-8 7.77777778C528 221.0733258 533.71428571 227 536 227Z"/>
										<g transform="translate(530 209)">
											<circle cx="6" cy="6" r="6" fill="#FFF"/>
											<path fill="#0E659B" fill-rule="nonzero"
												  d="M8 3v1.23447222H5.6V5.25H8v1.28047355H5.6v.49737167c0 .31527601.25164968.57544958.57691173.61361075l.08274607.00481844L8 7.64572355V9H5.75908747c-.9292773 0-1.69025537-.67553879-1.75467071-1.53136934L4 7.35085549V3h4Z"/>
										</g>
										<path fill="#0E659B" class="animate__animated animate__bounceInDown"
											  d="M415 255c2.2857143 0 8-5.9266742 8-12.22222222C423 238.48222972 419.418278 235 415 235s-8 3.48222972-8 7.77777778C407 249.0733258 412.71428571 255 415 255Z"/>
										<g transform="translate(409 237)">
											<circle cx="6" cy="6" r="6" fill="#FFF"/>
											<path fill="#0E659B" fill-rule="nonzero"
												  d="M8 3v1.23447222H5.6V5.25H8v1.28047355H5.6v.49737167c0 .31527601.25164968.57544958.57691173.61361075l.08274607.00481844L8 7.64572355V9H5.75908747c-.9292773 0-1.69025537-.67553879-1.75467071-1.53136934L4 7.35085549V3h4Z"/>
										</g>
										<path fill="#0E659B" class="animate__animated animate__bounceInDown"
											  d="M300 88c2.2857143 0 8-5.9266742 8-12.22222222C308 71.48222972 304.418278 68 300 68s-8 3.48222972-8 7.77777778C292 82.0733258 297.71428571 88 300 88Z"/>
										<g transform="translate(294 70)">
											<circle cx="6" cy="6" r="6" fill="#FFF"/>
											<path fill="#0E659B" fill-rule="nonzero"
												  d="M8 3v1.23447222H5.6V5.25H8v1.28047355H5.6v.49737167c0 .31527601.25164968.57544958.57691173.61361075l.08274607.00481844L8 7.64572355V9H5.75908747c-.9292773 0-1.69025537-.67553879-1.75467071-1.53136934L4 7.35085549V3h4Z"/>
										</g>
										<path fill="#0E659B" class="animate__animated animate__bounceInDown"
											  d="M307 203c2.2857143 0 8-5.9266742 8-12.22222222C315 186.48222972 311.418278 183 307 183s-8 3.48222972-8 7.77777778C299 197.0733258 304.71428571 203 307 203Z"/>
										<g transform="translate(301 185)">
											<circle cx="6" cy="6" r="6" fill="#FFF"/>
											<path fill="#0E659B" fill-rule="nonzero"
												  d="M8 3v1.23447222H5.6V5.25H8v1.28047355H5.6v.49737167c0 .31527601.25164968.57544958.57691173.61361075l.08274607.00481844L8 7.64572355V9H5.75908747c-.9292773 0-1.69025537-.67553879-1.75467071-1.53136934L4 7.35085549V3h4Z"/>
										</g>
										<path fill="#0E659B" class="animate__animated animate__bounceInDown"
											  d="M83 167c2.2857143 0 8-5.9266742 8-12.22222222C91 150.48222972 87.418278 147 83 147s-8 3.48222972-8 7.77777778C75 161.0733258 80.71428571 167 83 167Z"/>
										<g transform="translate(77 149)">
											<circle cx="6" cy="6" r="6" fill="#FFF"/>
											<path fill="#0E659B" fill-rule="nonzero"
												  d="M8 3v1.23447222H5.6V5.25H8v1.28047355H5.6v.49737167c0 .31527601.25164968.57544958.57691173.61361075l.08274607.00481844L8 7.64572355V9H5.75908747c-.9292773 0-1.69025537-.67553879-1.75467071-1.53136934L4 7.35085549V3h4Z"/>
										</g>
										<path fill="#0E659B" class="animate__animated animate__bounceInDown"
											  d="M492 320c2.2857143 0 8-5.9266742 8-12.22222222C500 303.48222972 496.418278 300 492 300s-8 3.48222972-8 7.77777778C484 314.0733258 489.71428571 320 492 320Z"/>
										<g transform="translate(486 302)">
											<circle cx="6" cy="6" r="6" fill="#FFF"/>
											<path fill="#0E659B" fill-rule="nonzero"
												  d="M8 3v1.23447222H5.6V5.25H8v1.28047355H5.6v.49737167c0 .31527601.25164968.57544958.57691173.61361075l.08274607.00481844L8 7.64572355V9H5.75908747c-.9292773 0-1.69025537-.67553879-1.75467071-1.53136934L4 7.35085549V3h4Z"/>
										</g>
										<path fill="#0E659B" class="animate__animated animate__bounceInDown"
											  d="M131 52c2.2857143 0 8-5.9266742 8-12.22222222C139 35.48222972 135.418278 32 131 32s-8 3.48222972-8 7.77777778C123 46.0733258 128.71428571 52 131 52Z"/>
										<g transform="translate(125 34)">
											<circle cx="6" cy="6" r="6" fill="#FFF"/>
											<path fill="#0E659B" fill-rule="nonzero"
												  d="M8 3v1.23447222H5.6V5.25H8v1.28047355H5.6v.49737167c0 .31527601.25164968.57544958.57691173.61361075l.08274607.00481844L8 7.64572355V9H5.75908747c-.9292773 0-1.69025537-.67553879-1.75467071-1.53136934L4 7.35085549V3h4Z"/>
										</g>
										<path fill="#0E659B" class="animate__animated animate__bounceInDown"
											  d="M147 157c2.2857143 0 8-5.9266742 8-12.22222222C155 140.48222972 151.418278 137 147 137s-8 3.48222972-8 7.77777778C139 151.0733258 144.71428571 157 147 157Z"/>
										<g transform="translate(141 139)">
											<circle cx="6" cy="6" r="6" fill="#FFF"/>
											<path fill="#0E659B" fill-rule="nonzero"
												  d="M8 3v1.23447222H5.6V5.25H8v1.28047355H5.6v.49737167c0 .31527601.25164968.57544958.57691173.61361075l.08274607.00481844L8 7.64572355V9H5.75908747c-.9292773 0-1.69025537-.67553879-1.75467071-1.53136934L4 7.35085549V3h4Z"/>
										</g>
										<path fill="#0E659B" class="animate__animated animate__bounceInDown"
											  d="M260 221c2.2857143 0 8-5.9266742 8-12.22222222C268 204.48222972 264.418278 201 260 201s-8 3.48222972-8 7.77777778C252 215.0733258 257.71428571 221 260 221Z"/>
										<g transform="translate(254 203)">
											<circle cx="6" cy="6" r="6" fill="#FFF"/>
											<path fill="#0E659B" fill-rule="nonzero"
												  d="M8 3v1.23447222H5.6V5.25H8v1.28047355H5.6v.49737167c0 .31527601.25164968.57544958.57691173.61361075l.08274607.00481844L8 7.64572355V9H5.75908747c-.9292773 0-1.69025537-.67553879-1.75467071-1.53136934L4 7.35085549V3h4Z"/>
										</g>
										<path fill="#0E659B" class="animate__animated animate__bounceInDown"
											  d="M187 215c2.2857143 0 8-5.9266742 8-12.22222222C195 198.48222972 191.418278 195 187 195s-8 3.48222972-8 7.77777778C179 209.0733258 184.71428571 215 187 215Z"/>
										<g transform="translate(181 197)">
											<circle cx="6" cy="6" r="6" fill="#FFF"/>
											<path fill="#0E659B" fill-rule="nonzero"
												  d="M8 3v1.23447222H5.6V5.25H8v1.28047355H5.6v.49737167c0 .31527601.25164968.57544958.57691173.61361075l.08274607.00481844L8 7.64572355V9H5.75908747c-.9292773 0-1.69025537-.67553879-1.75467071-1.53136934L4 7.35085549V3h4Z"/>
										</g>
										<path fill="#0E659B" class="animate__animated animate__bounceInDown"
											  d="M343 118c2.2857143 0 8-5.9266742 8-12.22222222C351 101.48222972 347.418278 98 343 98s-8 3.48222972-8 7.77777778C335 112.0733258 340.71428571 118 343 118Z"/>
										<g transform="translate(337 100)">
											<circle cx="6" cy="6" r="6" fill="#FFF"/>
											<path fill="#0E659B" fill-rule="nonzero"
												  d="M8 3v1.23447222H5.6V5.25H8v1.28047355H5.6v.49737167c0 .31527601.25164968.57544958.57691173.61361075l.08274607.00481844L8 7.64572355V9H5.75908747c-.9292773 0-1.69025537-.67553879-1.75467071-1.53136934L4 7.35085549V3h4Z"/>
										</g>
										<path fill="#0E659B" class="animate__animated animate__bounceInDown"
											  d="M259 247c2.2857143 0 8-5.9266742 8-12.22222222C267 230.48222972 263.418278 227 259 227s-8 3.48222972-8 7.77777778C251 241.0733258 256.71428571 247 259 247Z"/>
										<g transform="translate(253 229)">
											<circle cx="6" cy="6" r="6" fill="#FFF"/>
											<path fill="#0E659B" fill-rule="nonzero"
												  d="M8 3v1.23447222H5.6V5.25H8v1.28047355H5.6v.49737167c0 .31527601.25164968.57544958.57691173.61361075l.08274607.00481844L8 7.64572355V9H5.75908747c-.9292773 0-1.69025537-.67553879-1.75467071-1.53136934L4 7.35085549V3h4Z"/>
										</g>
										<path fill="#0E659B" class="animate__animated animate__bounceInDown"
											  d="M500 143c2.2857143 0 8-5.9266742 8-12.22222222C508 126.48222972 504.418278 123 500 123s-8 3.48222972-8 7.77777778C492 137.0733258 497.71428571 143 500 143Z"/>
										<g transform="translate(494 125)">
											<circle cx="6" cy="6" r="6" fill="#FFF"/>
											<path fill="#0E659B" fill-rule="nonzero"
												  d="M8 3v1.23447222H5.6V5.25H8v1.28047355H5.6v.49737167c0 .31527601.25164968.57544958.57691173.61361075l.08274607.00481844L8 7.64572355V9H5.75908747c-.9292773 0-1.69025537-.67553879-1.75467071-1.53136934L4 7.35085549V3h4Z"/>
										</g>
										<path fill="#0E659B" class="animate__animated animate__bounceInDown"
											  d="M483 100c2.2857143 0 8-5.9266742 8-12.22222222C491 83.48222972 487.418278 80 483 80s-8 3.48222972-8 7.77777778C475 94.0733258 480.71428571 100 483 100Z"/>
										<g transform="translate(477 82)">
											<circle cx="6" cy="6" r="6" fill="#FFF"/>
											<path fill="#0E659B" fill-rule="nonzero"
												  d="M8 3v1.23447222H5.6V5.25H8v1.28047355H5.6v.49737167c0 .31527601.25164968.57544958.57691173.61361075l.08274607.00481844L8 7.64572355V9H5.75908747c-.9292773 0-1.69025537-.67553879-1.75467071-1.53136934L4 7.35085549V3h4Z"/>
										</g>
										<path fill="#0E659B" class="animate__animated animate__bounceInDown"
											  d="M55 203c2.2857143 0 8-5.9266742 8-12.22222222C63 186.48222972 59.418278 183 55 183s-8 3.48222972-8 7.77777778C47 197.0733258 52.71428571 203 55 203Z"/>
										<g transform="translate(49 185)">
											<circle cx="6" cy="6" r="6" fill="#FFF"/>
											<path fill="#0E659B" fill-rule="nonzero"
												  d="M8 3v1.23447222H5.6V5.25H8v1.28047355H5.6v.49737167c0 .31527601.25164968.57544958.57691173.61361075l.08274607.00481844L8 7.64572355V9H5.75908747c-.9292773 0-1.69025537-.67553879-1.75467071-1.53136934L4 7.35085549V3h4Z"/>
										</g>
										<path fill="#0E659B" class="animate__animated animate__bounceInDown"
											  d="M341 221c2.2857143 0 8-5.9266742 8-12.22222222C349 204.48222972 345.418278 201 341 201s-8 3.48222972-8 7.77777778C333 215.0733258 338.71428571 221 341 221Z"/>
										<g transform="translate(335 203)">
											<circle cx="6" cy="6" r="6" fill="#FFF"/>
											<path fill="#0E659B" fill-rule="nonzero"
												  d="M8 3v1.23447222H5.6V5.25H8v1.28047355H5.6v.49737167c0 .31527601.25164968.57544958.57691173.61361075l.08274607.00481844L8 7.64572355V9H5.75908747c-.9292773 0-1.69025537-.67553879-1.75467071-1.53136934L4 7.35085549V3h4Z"/>
										</g>
										<path fill="#23944B"
											  d="M47 103c2.2857143 0 8-5.9266742 8-12.22222222C55 86.48222972 51.418278 83 47 83s-8 3.48222972-8 7.77777778C39 97.0733258 44.71428571 103 47 103Z"/>
										<g transform="translate(41 85)">
											<circle cx="6" cy="6" r="6" fill="#FFF"/>
											<path fill="#23944B"
												  d="M8 3v1.23447222H5.6V5.25H8v1.28047355H5.6v.49737167c0 .31527601.25164968.57544958.57691173.61361075l.08274607.00481844L8 7.64572355V9H5.75908747c-.9292773 0-1.69025537-.67553879-1.75467071-1.53136934L4 7.35085549V3h4Z"/>
										</g>
										<path fill="#23944B"
											  d="M356 82c2.2857143 0 8-5.9266742 8-12.22222222C364 65.48222972 360.418278 62 356 62s-8 3.48222972-8 7.77777778C348 76.0733258 353.71428571 82 356 82Z"/>
										<g transform="translate(350 64)">
											<circle cx="6" cy="6" r="6" fill="#FFF"/>
											<path fill="#23944B"
												  d="M8 3v1.23447222H5.6V5.25H8v1.28047355H5.6v.49737167c0 .31527601.25164968.57544958.57691173.61361075l.08274607.00481844L8 7.64572355V9H5.75908747c-.9292773 0-1.69025537-.67553879-1.75467071-1.53136934L4 7.35085549V3h4Z"/>
										</g>
										<path fill="#E44D28"
											  d="M133 125c2.2857143 0 8-5.9266742 8-12.22222222C141 108.48222972 137.418278 105 133 105s-8 3.48222972-8 7.77777778C125 119.0733258 130.71428571 125 133 125Z"/>
										<g transform="translate(127 107)">
											<circle cx="6" cy="6" r="6" fill="#FFF"/>
											<path fill="#E44D28"
												  d="M8 3v1.23447222H5.6V5.25H8v1.28047355H5.6v.49737167c0 .31527601.25164968.57544958.57691173.61361075l.08274607.00481844L8 7.64572355V9H5.75908747c-.9292773 0-1.69025537-.67553879-1.75467071-1.53136934L4 7.35085549V3h4Z"/>
										</g>
										<path fill="#23944B"
											  d="M252 169c2.2857143 0 8-5.9266742 8-12.22222222C260 152.48222972 256.418278 149 252 149s-8 3.48222972-8 7.77777778C244 163.0733258 249.71428571 169 252 169Z"/>
										<g transform="translate(246 151)">
											<circle cx="6" cy="6" r="6" fill="#FFF"/>
											<path fill="#23944B"
												  d="M8 3v1.23447222H5.6V5.25H8v1.28047355H5.6v.49737167c0 .31527601.25164968.57544958.57691173.61361075l.08274607.00481844L8 7.64572355V9H5.75908747c-.9292773 0-1.69025537-.67553879-1.75467071-1.53136934L4 7.35085549V3h4Z"/>
										</g>
										<path fill="#23944B"
											  d="M506 232c2.2857143 0 8-5.9266742 8-12.22222222C514 215.48222972 510.418278 212 506 212s-8 3.48222972-8 7.77777778C498 226.0733258 503.71428571 232 506 232Z"/>
										<g transform="translate(500 214)">
											<circle cx="6" cy="6" r="6" fill="#FFF"/>
											<path fill="#23944B"
												  d="M8 3v1.23447222H5.6V5.25H8v1.28047355H5.6v.49737167c0 .31527601.25164968.57544958.57691173.61361075l.08274607.00481844L8 7.64572355V9H5.75908747c-.9292773 0-1.69025537-.67553879-1.75467071-1.53136934L4 7.35085549V3h4Z"/>
										</g>
										<path fill="#23944B"
											  d="M8 232c2.2857143 0 8-5.9266742 8-12.22222222C16 215.48222972 12.418278 212 8 212s-8 3.48222972-8 7.77777778C0 226.0733258 5.71428571 232 8 232Z"/>
										<g transform="translate(2 214)">
											<circle cx="6" cy="6" r="6" fill="#FFF"/>
											<path fill="#23944B"
												  d="M8 3v1.23447222H5.6V5.25H8v1.28047355H5.6v.49737167c0 .31527601.25164968.57544958.57691173.61361075l.08274607.00481844L8 7.64572355V9H5.75908747c-.9292773 0-1.69025537-.67553879-1.75467071-1.53136934L4 7.35085549V3h4Z"/>
										</g>
										<path fill="#23944B"
											  d="M222 212c2.2857143 0 8-5.9266742 8-12.22222222C230 195.48222972 226.418278 192 222 192s-8 3.48222972-8 7.77777778C214 206.0733258 219.71428571 212 222 212Z"/>
										<g transform="translate(216 194)">
											<circle cx="6" cy="6" r="6" fill="#FFF"/>
											<path fill="#23944B"
												  d="M8 3v1.23447222H5.6V5.25H8v1.28047355H5.6v.49737167c0 .31527601.25164968.57544958.57691173.61361075l.08274607.00481844L8 7.64572355V9H5.75908747c-.9292773 0-1.69025537-.67553879-1.75467071-1.53136934L4 7.35085549V3h4Z"/>
										</g>
										<path fill="#23944B"
											  d="M391 234c2.2857143 0 8-5.9266742 8-12.22222222C399 217.48222972 395.418278 214 391 214s-8 3.48222972-8 7.77777778C383 228.0733258 388.71428571 234 391 234Z"/>
										<g transform="translate(385 216)">
											<circle cx="6" cy="6" r="6" fill="#FFF"/>
											<path fill="#23944B"
												  d="M8 3v1.23447222H5.6V5.25H8v1.28047355H5.6v.49737167c0 .31527601.25164968.57544958.57691173.61361075l.08274607.00481844L8 7.64572355V9H5.75908747c-.9292773 0-1.69025537-.67553879-1.75467071-1.53136934L4 7.35085549V3h4Z"/>
										</g>
										<path fill="#23944B"
											  d="M460 137c2.2857143 0 8-5.9266742 8-12.22222222C468 120.48222972 464.418278 117 460 117s-8 3.48222972-8 7.77777778C452 131.0733258 457.71428571 137 460 137Z"/>
										<g transform="translate(454 119)">
											<circle cx="6" cy="6" r="6" fill="#FFF"/>
											<path fill="#23944B"
												  d="M8 3v1.23447222H5.6V5.25H8v1.28047355H5.6v.49737167c0 .31527601.25164968.57544958.57691173.61361075l.08274607.00481844L8 7.64572355V9H5.75908747c-.9292773 0-1.69025537-.67553879-1.75467071-1.53136934L4 7.35085549V3h4Z"/>
										</g>
										<path fill="#23944B"
											  d="M444 324c2.2857143 0 8-5.9266742 8-12.22222222C452 307.48222972 448.418278 304 444 304s-8 3.48222972-8 7.77777778C436 318.0733258 441.71428571 324 444 324Z"/>
										<g transform="translate(438 306)">
											<circle cx="6" cy="6" r="6" fill="#FFF"/>
											<path fill="#23944B"
												  d="M8 3v1.23447222H5.6V5.25H8v1.28047355H5.6v.49737167c0 .31527601.25164968.57544958.57691173.61361075l.08274607.00481844L8 7.64572355V9H5.75908747c-.9292773 0-1.69025537-.67553879-1.75467071-1.53136934L4 7.35085549V3h4Z"/>
										</g>
									</g>
								</svg>